<svg width="311" height="88" viewBox="0 0 311 88" fill="none" xmlns="http://www.w3.org/2000/svg">
<path fill-rule="evenodd" clip-rule="evenodd" d="M293.521 87.0414C277.769 87.0414 265 74.2722 265 58.5207C265 42.7691 277.769 30 293.521 30H311V45.8968H301.345H301V45.9011C294.629 46.0622 287 50.6582 287 58.5207C287 66.3832 294.629 70.9792 301 71.1402V71.1446H301.335C301.338 71.1446 301.341 71.1446 301.345 71.1446C301.348 71.1446 301.352 71.1446 301.355 71.1446H311V87.0414H293.521Z" fill="white"/>
<path fill-rule="evenodd" clip-rule="evenodd" d="M238.521 87.0414C222.769 87.0414 210 74.2722 210 58.5207C210 42.7691 222.769 30 238.521 30H256V45.8968H246.345H246V45.9012C239.629 46.0622 232 50.6582 232 58.5207C232 66.3832 239.629 70.9792 246 71.1402V71.1446H246.345H256V87.0414H238.521Z" fill="white"/>
<rect x="231" y="65.534" width="13.0915" height="25" transform="rotate(-90 231 65.534)" fill="white"/>
<rect x="169" y="47" width="21" height="40" fill="white"/>
<rect x="155" y="47.5763" width="17.5763" height="49" transform="rotate(-90 155 47.5763)" fill="white"/>
<path d="M154.828 70.3256V87.0414H132.716C123.484 87.0414 116 79.5575 116 70.3256H154.828Z" fill="white"/>
<rect x="116" y="30" width="21" height="40.3256" fill="white"/>
<path fill-rule="evenodd" clip-rule="evenodd" d="M142 74.2753V61.7936H142V70.4348C139.239 70.4348 137 68.1962 137 65.4348V61.7936H135.482C128.588 61.7936 123 67.3818 123 74.2753H142Z" fill="white"/>
<rect x="84" y="30" width="21" height="37.4042" fill="white"/>
<rect x="54" y="30" width="21" height="36.4691" fill="white"/>
<path d="M54 66.4691H105C105 77.8309 95.7895 87.0414 84.4277 87.0414H74.5723C63.2105 87.0414 54 77.8309 54 66.4691Z" fill="white"/>
<path fill-rule="evenodd" clip-rule="evenodd" d="M84 61.9691V61.7936L95 61.7936C95 64.3758 92.9067 66.4691 90.3245 66.4691H68.6755C66.0933 66.4691 64 64.3758 64 61.7936L75 61.7936V61.9691C75 64.4544 77.0147 66.4691 79.5 66.4691C81.9853 66.4691 84 64.4544 84 61.9691Z" fill="white"/>
<path d="M23.3498 29.5167C22.3562 25.5179 25.3371 23.5184 27.8211 23.0186L20.8658 0.0251437C15.401 -0.474721 3.47763 6.52328 0.993607 17.0203V24.7681V32.5159C5.96166 48.0114 32.2923 62 16.8914 65C16.8914 75.497 17.885 64.7959 17.885 88C32.7891 87 42.2284 84.0011 44.7125 65.0066C45.0403 62.5 44.8502 62 44.7125 60.008C43.7075 45.473 25.8339 35.515 23.3498 29.5167Z" fill="white"/>
<path d="M0.99361 32.5159C0.99361 32.5159 0 29.0169 0 25.018C0 21.0192 0.99361 17.0203 0.99361 17.0203V32.5159Z" fill="white"/>
<path d="M18 65L18 88H0L0 65H18Z" fill="white"/>
<path d="M311 0V23L20.8658 23V0L311 0Z" fill="white"/>
</svg>
