<svg width="311" height="88" viewBox="0 0 311 88" fill="none" xmlns="http://www.w3.org/2000/svg">
<path fill-rule="evenodd" clip-rule="evenodd" d="M293.521 87.0414C277.769 87.0414 265 74.2722 265 58.5207C265 42.7691 277.769 30 293.521 30H311V45.8968H301.345H301V45.9012C294.629 46.0622 287 50.6582 287 58.5207C287 66.3832 294.629 70.9792 301 71.1402V71.1446H301.345H311V87.0414H293.521Z" fill="#1F2154"/>
<path fill-rule="evenodd" clip-rule="evenodd" d="M238.521 87.0414C222.769 87.0414 210 74.2722 210 58.5207C210 42.7691 222.769 30 238.521 30H256V45.8968H246.345H246V45.9012C239.629 46.0622 232 50.6582 232 58.5207C232 66.3832 239.629 70.9792 246 71.1402V71.1446H246.345H256V87.0414H238.521Z" fill="#1F2154"/>
<rect x="231" y="65.534" width="13.0915" height="25" transform="rotate(-90 231 65.534)" fill="#1F2154"/>
<rect x="169" y="47" width="21" height="40" fill="#1F2154"/>
<rect x="155" y="47.5763" width="17.5763" height="49" transform="rotate(-90 155 47.5763)" fill="#1F2154"/>
<path d="M154.828 70.3256V87.0414H132.716C123.484 87.0414 116 79.5574 116 70.3256H154.828Z" fill="#1F2154"/>
<rect x="116" y="30" width="21" height="40.3256" fill="#1F2154"/>
<path fill-rule="evenodd" clip-rule="evenodd" d="M142 70.4348V61.7936H142V70.4348C142 70.4348 142 70.4348 142 70.4348ZM137 61.7936V65.4348C137 68.1962 139.239 70.4348 142 70.4348V74.2753H123C123 67.3819 128.588 61.7936 135.482 61.7936H137Z" fill="#1F2154"/>
<rect x="83.9999" y="30" width="21" height="37.4042" fill="#1F2154"/>
<rect x="54" y="30" width="21" height="36.4691" fill="#1F2154"/>
<path d="M53.9999 66.4691H105C105 77.8308 95.7894 87.0414 84.4276 87.0414H74.5722C63.2105 87.0414 53.9999 77.8308 53.9999 66.4691Z" fill="#1F2154"/>
<path fill-rule="evenodd" clip-rule="evenodd" d="M94.9999 61.7936H63.9999C63.9999 64.3758 66.0932 66.4691 68.6755 66.4691H79.4889C79.4926 66.4691 79.4963 66.4691 79.5 66.4691C79.5037 66.4691 79.5074 66.4691 79.511 66.4691H90.3244C92.9066 66.4691 94.9999 64.3758 94.9999 61.7936ZM79.511 66.4691C81.9912 66.4631 84 64.4507 84 61.9691V61.7936H75V61.9691C75 64.4507 77.0087 66.4631 79.4889 66.4691H79.511Z" fill="#1F2154"/>
<path d="M23.3498 29.5167C22.3562 25.5178 25.337 23.5184 27.821 23.0186L20.8658 0.0251437C15.4009 -0.474721 3.47759 6.52328 0.993561 17.0203V24.7681V32.5159C5.96161 48.0114 32.2923 62 16.8913 65C16.8913 75.497 17.8849 64.7959 17.8849 88C32.7891 87 42.2284 84.0011 44.7124 65.0066C45.0402 62.5 44.8501 62 44.7124 60.008C43.7074 45.473 25.8338 35.515 23.3498 29.5167Z" fill="#1F2154"/>
<path d="M0.99361 32.5158C0.99361 32.5158 0 29.0168 0 25.018C0 21.0191 0.99361 17.0203 0.99361 17.0203V32.5158Z" fill="#1F2154"/>
<path d="M18 65L18 88H-2.86102e-05L-2.86102e-05 65H18Z" fill="#1F2154"/>
<path d="M311 0V23L20.8658 23V0L311 0Z" fill="#1F2154"/>
</svg>
